<svg width="16" height="17" viewBox="0 0 16 17" fill="none" xmlns="http://www.w3.org/2000/svg">
<path d="M1.20874 9.49996H12.3787L7.49874 14.38C7.10874 14.77 7.10874 15.41 7.49874 15.8C7.88874 16.19 8.51874 16.19 8.90874 15.8L15.4987 9.20996C15.8887 8.81996 15.8887 8.18996 15.4987 7.79996L8.91874 1.19996C8.73191 1.0127 8.47826 0.907471 8.21374 0.907471C7.94922 0.907471 7.69557 1.0127 7.50874 1.19996C7.11874 1.58996 7.11874 2.21996 7.50874 2.60996L12.3787 7.49996H1.20874C0.65874 7.49996 0.20874 7.94996 0.20874 8.49996C0.20874 9.04996 0.65874 9.49996 1.20874 9.49996Z" fill="#7676B2"/>
</svg>
